<svg width="3000" height="2588" viewBox="0 0 3000 2588" fill="none" xmlns="http://www.w3.org/2000/svg">
<path d="M1675 1138.09C1602.04 1009.22 1490.99 980.617 1400.1 1052.81L1399.01 1162.35C1428.31 1146.45 1460.2 1138.65 1494.58 1139.01C1548.11 1139.54 1593.21 1158.42 1629.85 1195.62C1666.49 1232.81 1684.59 1278.05 1684.07 1331.27C1683.54 1384.5 1664.56 1429.49 1627.15 1466.21C1589.75 1502.93 1544.28 1521.01 1490.75 1520.48C1436.74 1519.96 1391.43 1501.08 1354.75 1463.84C1318.07 1426.6 1300.01 1381.13 1300.54 1327.38L1301.95 1183.93L1248.18 1274.67C1152 1436.93 1228.02 1571.22 1417.11 1573.11L1580.19 1574.71C1769.28 1576.6 1847.96 1443.84 1755.05 1279.69L1674.92 1138.13" fill="url(#paint0_linear_1328_68)"/>
<path d="M1559.07 1396.96C1577.65 1378.64 1587.08 1356.42 1587.33 1330.31C1587.57 1304.68 1578.5 1282.55 1560.04 1263.87C1541.58 1245.19 1519.45 1235.71 1493.65 1235.43C1467.37 1235.19 1444.84 1244.1 1426.01 1262.18C1407.19 1280.26 1397.64 1302.35 1397.4 1328.42C1397.15 1354.54 1406.22 1376.91 1424.68 1395.59C1443.14 1414.27 1465.52 1423.75 1491.8 1423.99C1518.08 1424.23 1540.49 1415.23 1559.11 1396.92L1559.07 1396.96Z" fill="url(#paint1_linear_1328_68)"/>
<defs>
<linearGradient id="paint0_linear_1328_68" x1="1206.5" y1="1294.37" x2="1794.09" y2="1294.37" gradientUnits="userSpaceOnUse">
<stop offset="1" stop-color="#E50914"/>
</linearGradient>
<linearGradient id="paint1_linear_1328_68" x1="1397.39" y1="1329.71" x2="1587.33" y2="1329.71" gradientUnits="userSpaceOnUse">
<stop offset="1" stop-color="#E50914"/>
</linearGradient>
</defs>
</svg>
