<svg width="3000" height="2588" viewBox="0 0 3000 2588" fill="none" xmlns="http://www.w3.org/2000/svg">
<path d="M1384.49 554.29C1386.11 552.58 1388.27 551.977 1390.25 551.056C1393.94 549.335 1397.72 547.739 1401.23 545.68C1403.26 544.486 1405.25 544.125 1408.11 544.133C1407.92 541.339 1409.26 539.448 1411.05 537.443C1416.34 531.496 1419.5 524.48 1421.06 516.647C1425.48 494.385 1411.36 471.496 1389.45 465.605C1365.09 459.057 1340.59 473.098 1334.59 497.605C1326.82 529.317 1352.19 552.946 1376.01 552.788C1378.65 552.771 1381.56 551.632 1384.49 554.29Z" fill="#FFE100"/>
<path d="M1571.08 628.983C1573.44 629.44 1575.29 630.336 1577.23 631.617C1582.56 635.135 1588.33 637.699 1595.55 638.064C1599.24 637.583 1602.26 637.135 1605.25 636.531C1620.01 633.548 1633.66 618.838 1633.07 599.801C1632.64 585.942 1622.32 568.818 1603.25 565.53C1588.85 563.047 1574.45 569.092 1566.45 581.301C1558.54 593.391 1558.62 609.394 1566.64 621.482C1568.15 623.75 1569.57 626.073 1571.08 628.983Z" fill="#FFE100"/>
<path d="M1571.26 629.594C1568.32 635.593 1565.29 641.549 1562.47 647.599C1547.96 678.66 1533.51 709.747 1519.02 740.82C1517.73 743.595 1516.36 746.335 1514.82 749.534C1508.59 749.534 1502.28 749.534 1495.67 749.534C1495.72 749.569 1495.48 749.433 1495.27 749.249C1495.07 749.069 1494.86 748.866 1494.74 748.628C1494.04 747.114 1493.32 745.604 1492.67 744.062C1465.02 677.687 1437.38 611.309 1408.66 544.537C1405.37 544.124 1403.38 544.486 1401.35 545.679C1397.85 547.738 1394.07 549.335 1390.37 551.056C1388.4 551.976 1386.23 552.579 1385.15 554.747C1386.05 557.365 1386.82 560.04 1387.88 562.591C1413.46 624.116 1439.07 685.627 1464.67 747.145C1465.71 749.653 1466.62 752.216 1467.79 755.28C1450.73 761.786 1435.62 770.32 1426.71 786.23C1415.94 787.646 1405.73 788.911 1395.54 790.345C1378.46 792.75 1361.38 795.183 1344.32 797.758C1331.67 799.667 1319.05 801.785 1306.42 803.876C1298.73 805.149 1291.17 806.954 1283.83 809.652C1265.04 816.558 1254.64 830.12 1251.57 849.777C1250.22 858.382 1249.9 867.002 1250.23 875.656C1251.02 896.575 1251.96 917.489 1252.81 938.406C1253.46 954.303 1254.09 970.201 1254.68 986.101C1255.42 1005.91 1255.92 1025.72 1256.95 1045.51C1257.34 1052.99 1258.5 1060.5 1260.06 1067.83C1262.27 1078.17 1267.72 1086.89 1275.1 1094.42C1282.19 1101.68 1290.58 1107.14 1299.36 1112.03C1320.29 1123.68 1341.79 1134.17 1363.59 1144.04C1372.2 1147.93 1380.88 1151.74 1389.75 1154.97C1411.91 1163.03 1434.73 1164.97 1457.99 1161.02C1479.1 1157.44 1500.21 1153.82 1521.29 1150.03C1544.56 1145.86 1567.81 1141.57 1591.03 1137.14C1613.7 1132.81 1636.3 1128.09 1658.62 1122.16C1666.16 1120.16 1673.52 1117.72 1680.54 1114.26C1705.49 1101.97 1720.63 1082.01 1726.24 1054.91C1728.49 1044 1729.82 1032.89 1731.38 1021.84C1734.03 1003.06 1736.63 984.267 1739.05 965.453C1741.65 945.253 1744.04 925.026 1746.48 904.807C1747.32 897.882 1748.28 890.961 1748.78 884.01C1749.39 875.675 1750.14 867.285 1749.8 858.961C1749.1 841.568 1741.11 828.119 1726.27 818.889C1717.19 813.242 1707.3 809.478 1696.93 807.249C1682.53 804.151 1668.04 801.414 1653.53 798.87C1634.62 795.556 1615.66 792.565 1596.71 789.472C1590.41 788.443 1584.08 787.528 1578.48 786.669C1572.92 780.352 1568.08 774.241 1562.59 768.779C1557.04 763.248 1550.09 759.55 1543.05 756.443C1541.98 753.391 1543.99 751.399 1544.97 749.275C1561.74 713.106 1578.61 676.981 1595.45 640.844C1595.69 640.34 1595.87 639.814 1595.53 638.661C1588.45 637.698 1582.69 635.134 1577.35 631.616C1575.41 630.335 1573.57 629.439 1571.26 629.594ZM1586.12 1102.94C1573.25 1105.2 1560.39 1107.53 1547.51 1109.72C1533.8 1112.06 1520.1 1114.46 1506.35 1116.48C1485.75 1119.51 1469.9 1108.19 1466.07 1088C1465.66 1085.82 1465.51 1083.57 1465.42 1081.35C1465.26 1077.45 1465.09 1073.54 1465.19 1069.64C1466.01 1038.13 1466.73 1006.62 1467.84 975.123C1468.35 960.638 1469.08 946.115 1470.73 931.727C1473.4 908.532 1485.78 892.645 1508.3 885.356C1511.72 884.247 1515.26 883.334 1518.82 882.794C1537.79 879.913 1556.77 877.087 1575.77 874.418C1599.73 871.053 1623.71 867.818 1647.69 864.61C1655.41 863.578 1663.14 862.552 1670.9 861.98C1684.05 861.012 1693.37 866.723 1698.86 878.789C1701.18 883.888 1702.45 889.287 1703.16 894.872C1704.54 905.786 1703.28 916.599 1702.18 927.409C1700.35 945.437 1698.3 963.443 1696.37 981.461C1694.56 998.37 1692.9 1015.3 1690.92 1032.19C1689.95 1040.52 1687.84 1048.63 1684.28 1056.28C1676.21 1073.65 1663.54 1085.57 1644.61 1090.45C1625.74 1095.3 1606.67 1099.1 1586.12 1102.94ZM1433.76 1064.81C1442.81 1065.54 1446.26 1068.42 1447.85 1076.98C1449.29 1084.73 1447.53 1091.91 1443.14 1098.36C1441.93 1100.14 1440.2 1101.75 1438.36 1102.89C1432.99 1106.21 1426.5 1104.42 1423.27 1098.98C1418.09 1090.25 1420.57 1074.04 1428.24 1067.32C1429.44 1066.27 1431.12 1065.77 1433.76 1064.81ZM1446.17 1023.1C1445.37 1026.68 1444.09 1030.02 1441.27 1032.53C1436.27 1036.94 1429.46 1035.12 1427.25 1028.8C1425.26 1023.12 1427.76 1015.18 1432.66 1011.64C1437.09 1008.43 1443.09 1009.68 1445.28 1014.64C1446.23 1016.81 1446.13 1019.44 1446.17 1023.1Z" fill="#FF0058"/>
<path d="M1433.17 1064.91C1431.12 1065.77 1429.44 1066.27 1428.24 1067.32C1420.56 1074.04 1418.09 1090.25 1423.27 1098.98C1426.5 1104.42 1432.99 1106.21 1438.36 1102.89C1440.2 1101.75 1441.93 1100.14 1443.14 1098.36C1447.53 1091.91 1449.29 1084.73 1447.85 1076.98C1446.26 1068.42 1442.81 1065.54 1433.17 1064.91Z" fill="#FF0058"/>
<path d="M1446.34 1022.48C1446.13 1019.44 1446.23 1016.81 1445.28 1014.64C1443.09 1009.68 1437.09 1008.43 1432.66 1011.64C1427.76 1015.18 1425.26 1023.12 1427.25 1028.8C1429.46 1035.12 1436.27 1036.95 1441.27 1032.53C1444.09 1030.03 1445.37 1026.68 1446.34 1022.48Z" fill="#FF0058"/>
<path d="M1567.31 1109.35C1592.74 1105.51 1617.19 1101.51 1641.37 1096.4C1665.64 1091.27 1681.88 1078.74 1692.22 1060.46C1696.78 1052.41 1699.48 1043.88 1700.73 1035.11C1703.27 1017.34 1705.39 999.536 1707.71 981.747C1710.19 962.792 1712.81 943.849 1715.16 924.883C1716.57 913.511 1718.18 902.136 1716.41 890.653C1715.5 884.778 1713.88 879.098 1710.91 873.734C1703.88 861.039 1691.92 855.032 1675.08 856.05C1665.13 856.652 1655.21 857.731 1645.32 858.817C1614.59 862.191 1583.85 865.595 1553.14 869.135C1528.79 871.943 1504.46 874.916 1480.15 877.947C1475.59 878.515 1471.06 879.475 1466.67 880.642C1437.81 888.311 1421.94 905.024 1418.53 929.426C1416.41 944.562 1415.47 959.841 1414.82 975.08C1413.4 1008.22 1412.47 1041.37 1411.42 1074.51C1411.28 1078.61 1411.51 1082.73 1411.71 1086.83C1411.83 1089.17 1412.02 1091.54 1412.55 1093.83C1417.45 1115.07 1437.77 1126.98 1464.17 1123.79C1481.8 1121.67 1499.36 1119.14 1516.93 1116.68C1533.44 1114.38 1549.92 1111.93 1567.31 1109.35Z" fill="#00D1FF"/>
<path d="M1491.53 1025.1C1492.12 1022.55 1492.35 1020.51 1493.25 1018.84C1497.11 1011.72 1506.15 1009.74 1512.66 1014.52C1514.22 1015.67 1515.58 1017.13 1516.84 1018.6C1533.87 1038.39 1565.43 1042.27 1587.63 1030.79C1596 1026.46 1602.68 1020.2 1607.48 1012.02C1608.19 1010.81 1608.82 1009.56 1609.59 1008.39C1613.88 1001.88 1621.09 1000.06 1627.9 1003.73C1633.94 1006.98 1636.33 1014.24 1633.18 1021.14C1628.07 1032.31 1620.15 1041.29 1610.31 1048.52C1597.6 1057.86 1583.25 1062.81 1567.56 1064.05C1543.26 1065.97 1521.72 1059.37 1503.26 1043.33C1500.32 1040.78 1497.74 1037.79 1495.11 1034.9C1492.79 1032.35 1491.42 1029.33 1491.53 1025.1Z" fill="#1E1E25"/>
</svg>
