<svg width="1024" height="1024" viewBox="0 0 1024 1024" fill="none" xmlns="http://www.w3.org/2000/svg">
<rect width="1024" height="1024" fill="black"/>
<path d="M160.485 388.299C260.291 388.299 360.142 388.299 459.948 388.299C459.993 388.073 460.083 387.847 460.129 387.576C435.517 375.725 410.904 363.874 386.066 351.887C387.061 350.666 388.192 351.073 389.097 351.073C415.926 351.751 442.755 352.43 469.584 353.154C501.978 354.013 534.372 354.918 566.766 355.822C583.642 356.275 600.517 356.772 617.393 357.27C620.877 357.36 621.148 357.541 621.917 360.979C622.46 363.331 622.732 365.728 623.184 368.08C623.501 369.89 622.777 370.659 621.058 371.382C607.123 377.127 592.69 380.519 577.624 381.062C576.72 381.107 575.86 381.198 574.955 381.243C574.819 382.962 576.177 382.871 577.036 383.188C580.294 384.409 583.596 385.495 587.035 386.083C588.618 386.354 589.84 386.942 590.79 388.299C594.274 393.275 596.491 398.793 597.938 405.171C565.771 402.774 533.965 401.417 501.933 400.422C515.687 413.177 530.21 424.893 543.828 437.965C416.062 421.726 288.251 405.443 160.485 389.204C160.44 388.933 160.44 388.616 160.485 388.299Z" fill="#7A7A7A" style="mix-blend-mode:luminosity"/>
<path d="M287.127 318.866C286.584 318.73 285.996 318.595 285.453 318.459C284.051 317.464 282.512 316.921 280.793 317.057C280.25 316.921 279.662 316.785 279.119 316.604C278.621 316.333 278.169 315.926 277.626 315.745C271.654 313.8 265.592 312.126 259.71 309.91C257.267 309.005 254.462 308.689 251.973 310.407C251.385 310.181 250.028 310.679 250.571 309.458C252.743 304.663 260.479 301.497 265.501 303.125C285.996 309.774 306.627 315.654 327.981 319.002C333.32 319.861 338.704 320.359 344.133 320.54C347.074 320.63 348.703 319.861 349.924 316.966C353.317 308.915 357.48 301.27 362.547 294.078C363.045 293.355 363.316 292.405 364.854 292.043C363.271 300.728 360.602 308.87 357.887 316.966C355.172 325.063 351.779 332.933 348.386 340.668C350.015 342.206 352.005 343.472 351.372 344.196C350.829 344.015 350.196 343.88 349.698 343.563C348.024 342.523 347.119 343.02 346.26 344.694C344.54 347.951 343.138 351.388 340.649 354.238C340.423 350.031 340.649 345.87 341.464 341.708C342.143 338.316 343.274 335.059 344.133 331.712C344.812 329.224 344.495 328.817 341.871 328.636C338.885 328.41 335.854 328.546 332.868 328.139C321.421 326.601 310.111 324.339 298.89 321.58C294.954 320.72 291.244 319.047 287.127 318.866Z" fill="#091214"/>
<path d="M586.817 289.556C579.714 288.289 572.611 286.978 565.507 285.756C545.917 282.454 526.282 279.243 506.873 275.036C499.362 273.408 491.943 271.553 484.477 269.789C484.251 269.201 484.432 268.613 484.704 268.07C494.159 269.563 503.615 271.01 513.071 272.503C514.835 272.775 516.6 273.091 518.364 273.363C519.269 273.498 520.174 273.589 520.627 272.503C529.766 276.755 539.674 276.8 549.401 277.931C553.835 278.474 558.269 279.333 562.657 280.147C571.615 281.821 580.619 283.042 589.577 284.671C590.934 284.897 591.839 285.168 591.432 286.932C591.16 288.063 591.296 289.33 591.251 290.506C590.572 290.687 589.939 290.596 589.396 290.144C588.898 288.515 587.993 288.425 586.817 289.556Z" fill="#1F2125"/>
<path d="M627.53 386.714C627.485 389.337 627.44 392.006 627.394 394.629C625.766 396.393 624.182 398.203 622.463 399.876C618.708 403.676 614.002 405.53 608.799 406.254C607.216 406.48 606.311 406.073 605.632 404.49C603.144 398.519 600.113 392.82 595.77 387.166C605.135 387.166 613.188 383.909 621.739 381.195C621.648 384.633 617.441 393.589 616.219 395.217C618.527 394.132 622.96 387.437 625.449 384.362C626.851 384.769 626.67 386.171 627.53 386.714Z" fill="#F2F2F3"/>
<path d="M296.263 374.684C296.534 374.774 297.077 374.774 297.077 374.91C298.027 378.981 301.239 378.302 304.135 378.302C339.922 378.302 375.709 378.302 411.496 378.302C412.944 378.302 414.437 378.619 415.885 377.986C415.749 376.403 414.437 376.674 413.577 376.267C412.084 375.543 410.41 375.046 410.32 372.965C414.799 375 419.323 376.991 424.074 379.162C423.169 379.524 423.938 379.162 423.712 379.705C423.666 379.795 423.531 379.976 423.44 379.976C381.048 379.976 338.655 379.976 296.082 379.976C295.493 378.121 296.941 376.403 296.263 374.684Z" fill="#7A7A7A" style="mix-blend-mode:luminosity"/>
<path d="M588.578 411.232C586.813 413.177 584.777 413.946 582.244 412.77C581.656 411.91 580.751 411.82 579.846 411.82C569.44 412.227 559.125 410.644 548.719 410.825C542.113 410.915 535.463 411.458 528.902 410.327C528.269 410.237 527.545 410.825 526.821 411.096C526.369 411.006 525.735 411.051 525.554 410.779C524.785 409.739 523.292 409.287 522.84 407.658C526.595 407.658 530.26 407.477 533.879 407.704C548.854 408.473 563.785 409.332 578.76 410.191C582.063 410.327 585.365 410.418 588.578 411.232Z" fill="#7A7A7A" style="mix-blend-mode:luminosity"/>
<path d="M526.816 411.052C527.495 410.78 528.264 410.192 528.898 410.283C535.503 411.414 542.154 410.871 548.714 410.78C559.12 410.645 569.435 412.183 579.841 411.775C580.746 411.73 581.651 411.866 582.239 412.725C572.331 414.399 562.242 412.816 552.288 414.309C548.623 414.851 544.823 414.354 541.068 414.535C537.901 414.67 534.734 415.077 531.567 415.349C529.712 414.263 528.083 412.861 526.816 411.052Z" fill="#606060" style="mix-blend-mode:luminosity"/>
<path d="M399.363 704.112C400.63 703.931 401.671 704.293 402.666 705.107C413.705 714.063 424.971 722.748 436.598 730.98C437.186 731.387 438.408 731.885 437.367 733.061C428.273 727.814 420.085 721.346 411.85 714.877C407.552 711.44 402.892 708.409 399.363 704.112Z" fill="#7A7A7A" style="mix-blend-mode:luminosity"/>
<path d="M394.895 700.446C397.383 700.085 398.152 700.763 399.374 704.155C397.473 703.387 396.161 701.984 394.895 700.446Z" fill="#7A7A7A" style="mix-blend-mode:luminosity"/>
<path d="M290.326 378.211C287.205 381.061 284.218 379.613 281.504 379.749C284.083 378.754 286.752 378.211 290.326 378.211Z" fill="white"/>
<path d="M752 437.422C752.995 437.965 753.855 438.643 754.171 439.819C753.538 439.819 752.904 439.819 752.271 439.819C751.638 439.503 751.366 438.869 751.23 438.236C751.457 437.965 751.728 437.693 752 437.422Z" fill="#1A3037"/>
<path d="M596.768 411.772C596.406 411.727 595.999 411.682 595.637 411.682C596.044 411.274 596.451 411.274 596.768 411.772Z" fill="#606060" style="mix-blend-mode:luminosity"/>
<path d="M287.121 318.867C291.238 319.003 294.948 320.722 298.884 321.672C310.104 324.431 321.415 326.692 332.862 328.23C335.848 328.637 338.879 328.502 341.865 328.728C344.489 328.909 344.806 329.316 344.127 331.804C343.267 335.151 342.136 338.408 341.458 341.8C340.598 345.962 340.417 350.123 340.643 354.33C338.879 359.577 336.888 364.733 334.445 370.387C332.002 366.135 331.188 361.974 330.78 357.767C330.283 352.294 331.142 347.092 333.314 341.936C335.259 337.322 333.54 333.839 328.88 331.804C327.659 331.261 326.347 330.763 325.035 330.537C316.665 328.818 308.43 326.512 300.242 324.069C296.351 322.938 292.505 321.626 288.659 320.45C287.8 320.134 287.302 319.681 287.121 318.867Z" fill="#606060" style="mix-blend-mode:luminosity"/>
<path d="M649.431 422.176C656.217 431.675 647.712 441.942 639.613 443.661C639.839 441.671 647.712 424.392 649.431 422.176Z" fill="#091214"/>
<path d="M251.922 310.452C254.41 308.778 257.261 309.05 259.658 309.954C265.54 312.171 271.603 313.799 277.575 315.789C278.117 315.97 278.57 316.377 279.068 316.649C278.751 317.192 278.298 317.508 277.62 317.372C270.064 315.654 262.509 313.935 254.953 312.171C253.822 311.899 252.646 311.537 251.922 310.452Z" fill="#606060" style="mix-blend-mode:luminosity"/>
<path d="M484.655 268.07C484.383 268.613 484.202 269.156 484.428 269.789C482.076 269.608 479.859 269.11 477.461 267.708C480.311 266.261 482.483 267.482 484.655 268.07Z" fill="#1F2125"/>
<path d="M280.789 317.103C282.508 316.967 284.047 317.51 285.449 318.505C283.368 319.726 281.965 318.821 280.789 317.103Z" fill="#606060" style="mix-blend-mode:luminosity"/>
<path d="M586.816 289.553C587.993 288.423 588.898 288.513 589.441 290.187C588.536 289.961 587.676 289.734 586.816 289.553Z" fill="#08090A"/>
<path d="M633.919 405.307C634.326 404.945 634.643 405.262 634.869 405.533C634.914 405.624 634.778 406.031 634.688 406.076C634.235 406.167 633.964 405.94 633.828 405.488L633.919 405.307Z" fill="#08090A"/>
<path d="M750.503 436.243C751.318 436.243 751.68 436.786 751.997 437.419C751.725 437.69 751.454 437.962 751.227 438.233C750.639 437.645 750.277 437.012 750.594 436.152L750.503 436.243Z" fill="#1A3037"/>
<path d="M750.592 436.199C750.275 436.29 750.094 436.154 750.14 435.883C750.14 435.883 750.366 435.883 750.366 435.928C750.456 436.019 750.456 436.154 750.502 436.29C750.502 436.245 750.592 436.199 750.592 436.199Z" fill="#1A3037"/>
<path d="M692.631 608.625C692.767 611.339 691.5 612.877 690.55 614.46C686.433 621.245 680.733 626.582 675.077 632.01C672.363 634.589 669.331 636.85 666.572 639.428C664.807 641.102 663.043 641.283 660.826 640.65C658.337 639.926 656.075 638.84 653.723 637.845C652.139 637.212 652.275 636.262 652.953 634.996C655.125 631.015 657.432 627.577 662.273 625.859C671.639 622.511 679.918 616.857 688.243 611.475C689.51 610.66 690.867 609.801 692.631 608.625Z" fill="#F2F2F3"/>
<path d="M693.945 582.799C696.66 578.14 700.279 574.115 703.582 569.863C708.287 563.756 711.545 557.152 712.223 549.508C712.314 548.377 712.676 547.292 712.766 546.161C712.993 543.945 714.169 543.537 716.205 544.126C725.751 546.704 735.478 548.332 746.518 549.056C730.411 563.349 714.576 576.331 694.579 583.523C694.352 583.206 694.172 582.98 693.945 582.799Z" fill="white"/>
<path d="M286.263 520.695C285.675 484.463 290.063 449.815 299.383 415.257C209.033 403.723 119.091 392.279 28.4238 380.7C30.7765 379.885 32.5409 379.885 34.3054 379.885C111.987 379.931 189.624 379.931 267.306 379.976C270.156 379.976 277.35 379.75 281.467 379.75C270.79 379.116 268.754 373.417 271.514 367.989C271.016 367.718 270.79 367.492 270.518 367.492C260.972 368.08 262.239 368.034 255.905 361.838C249.209 355.279 242.875 348.449 236.586 341.528C232.967 337.548 231.745 333.703 234.369 328.908C234.686 328.275 235.003 327.551 234.641 326.737C233.329 326.104 232.017 326.782 230.705 326.827C227.673 326.873 225.547 325.742 224.28 322.847C221.158 315.474 218.715 307.875 217.856 299.869C217.584 297.155 217.63 294.441 218.172 291.772C219.53 284.806 223.647 280.916 230.705 280.283C260.294 277.614 289.882 275.036 319.471 272.413C325.172 271.915 330.872 271.282 336.573 270.92C339.107 270.784 341.143 269.88 343.178 268.432C359.33 257.034 376.341 247.037 394.665 239.393C401.768 236.407 409.278 234.689 416.562 232.246C417.422 231.975 418.327 231.884 419.232 232.201C434.343 236.95 449.861 240.026 465.334 243.283C476.916 245.725 487.91 249.48 498.633 254.365C507.953 258.617 517.499 262.326 526.91 266.397C537.768 271.101 549.26 273.543 560.751 275.986C574.912 279.017 589.164 281.504 603.189 285.033C606.266 285.801 609.207 286.932 611.921 288.606C629.792 299.597 647.03 311.448 663.724 324.159C667.977 327.37 670.873 331.396 672.954 336.191C675.261 341.573 677.614 346.956 680.057 352.293C681.505 355.505 683.722 358.038 686.617 360.209C700.28 370.387 713.808 380.745 726.25 392.415C732.312 398.114 737.832 404.266 743.125 410.644C748.6 417.248 755.115 422.947 761.856 428.239C763.394 429.46 764.932 430.682 766.561 431.767C783.03 442.487 794.159 458.047 805.153 473.788C807.325 476.909 807.597 479.623 805.47 483.242C798.955 494.46 792.938 505.904 786.74 517.302C785.337 519.835 783.618 522.052 781.537 524.042C773.8 531.324 765.294 537.476 755.658 542.044C753.531 543.04 751.903 544.442 750.41 546.206C744.392 553.172 738.284 560.047 732.177 566.922C726.838 572.984 720.594 577.869 713.582 581.849C705.981 586.146 698.38 590.534 690.372 594.062C686.889 595.6 686.165 602.747 686.165 603.38C687.658 604.285 688.698 603.47 689.784 603.108C692.227 602.294 694.625 601.435 697.068 600.621C700.009 599.671 699.964 599.716 700.461 602.701C701.321 607.767 699.738 612.2 697.249 616.497C692.589 624.504 686.617 631.469 680.102 638.028C677.749 640.425 676.573 642.597 676.89 646.26C677.614 654.176 673.587 660.373 665.986 662.408C658.521 664.399 652.911 668.696 647.392 673.717C638.252 682.039 628.842 690.046 618.029 696.242C614.274 698.368 610.383 699.544 605.949 699.137C584.504 697.328 563.557 693.438 543.514 685.341C535.008 681.904 527.091 677.335 518.359 671.953C526.503 669.781 533.651 667.836 541.84 665.665C534.511 661.413 527.226 658.699 519.807 655.126C525.869 650.965 532.429 648.748 537.994 644.949C537.542 643.23 536.275 643.637 535.325 643.637C524.105 643.501 515.237 648.296 508.224 656.709C504.424 661.232 501.438 666.298 499.447 671.907C499.131 672.857 499.131 674.033 497.638 674.712C494.833 672.586 491.892 670.369 488.951 668.153C487.639 669.691 488.137 671.229 488.137 672.676C488.137 693.71 493.43 713.521 502.343 732.429C512.477 753.959 526.367 772.776 543.65 789.105C544.464 789.874 545.776 790.372 545.776 792C486.372 775.128 433.393 746.586 387.2 705.063C384.938 707.37 382.856 709.496 380.73 711.576C378.287 714.019 378.287 714.019 375.844 711.803C368.56 705.199 361.773 698.188 355.439 690.634C323.95 653.136 304.677 610.074 296.895 561.811C294.361 546.161 293.321 530.374 293.592 514.498C293.592 513.91 293.592 513.367 293.592 511.784C291.059 514.814 288.932 517.438 286.263 520.695ZM737.018 549.372C737.153 549.236 737.244 549.055 737.38 548.92C737.244 549.055 737.063 549.146 736.927 549.282C736.61 549.553 736.249 549.824 735.932 550.096C733.76 550.367 699.285 578.185 697.566 581.216C700.326 580.266 722.811 565.927 729.643 557.785C730.774 556.428 735.389 551.679 736.203 550.367C736.475 550.005 736.746 549.689 737.018 549.372ZM615.902 395.672C617.622 392.867 621.648 384.725 621.739 381.242C613.188 383.956 605.135 387.168 595.769 387.213C600.113 392.867 603.144 398.566 605.632 404.537C606.266 406.075 607.216 406.482 608.799 406.301C614.002 405.578 618.708 403.723 622.463 399.923C624.137 398.205 625.765 396.395 627.394 394.676C629.204 397.209 631.014 399.697 632.733 402.276C633.366 403.18 634.543 403.949 633.864 405.351L633.773 405.532C633.185 405.397 632.552 405.351 632.099 405.035C629.475 403.225 627.575 403.859 625.087 405.894C618.346 411.458 610.473 413.81 601.651 412.227C600.022 411.955 598.393 411.91 596.765 411.774C596.403 411.322 596.041 411.277 595.634 411.684C593.281 411.684 590.974 410.779 588.576 411.277C585.364 410.463 582.061 410.372 578.758 410.191C563.783 409.332 548.853 408.472 533.877 407.703C530.258 407.523 526.593 407.658 522.838 407.658C523.29 409.332 524.783 409.739 525.552 410.779C525.733 411.051 526.367 411.005 526.819 411.096C528.086 412.86 529.715 414.262 531.57 415.393C531.841 415.755 532.113 416.117 532.429 416.433C542.202 424.711 552.02 432.943 561.792 441.221C564.869 443.799 567.855 446.468 570.886 449.091C570.795 449.318 570.66 449.498 570.569 449.725C564.507 449.137 558.444 448.549 552.381 447.961C551.477 446.875 550.165 447.192 548.988 447.056C535.551 445.292 522.114 443.573 508.677 441.854C496.416 440.271 484.201 438.688 471.94 437.15C458.819 435.522 445.654 433.984 432.488 432.31C414.119 429.958 395.751 427.561 377.427 425.163C364.307 423.444 351.141 421.771 338.021 420.097C328.339 418.831 318.612 417.655 308.93 416.343C306.713 416.026 305.582 416.705 305.129 418.966C303.727 425.887 302.007 432.762 300.65 439.728C297.574 455.243 295.854 470.939 294.588 486.725C294.316 490.027 293.819 493.419 294.859 497.038C297.981 494.641 299.021 490.796 302.369 489.077C302.369 491.655 302.55 493.917 302.324 496.133C301.057 510.879 301.193 525.625 302.279 540.371C303.455 556.202 306.215 571.717 310.377 587.006C318.747 618.035 332.411 646.532 351.503 672.405C358.832 682.356 366.931 691.674 375.889 700.268C377.518 701.851 378.739 702.123 380.323 700.359C381.906 698.549 383.716 696.921 385.39 695.202C386.566 693.981 387.562 693.981 388.874 695.112C390.91 696.876 392.448 699.183 394.936 700.449C396.203 701.987 397.515 703.435 399.415 704.158V704.113C402.944 708.455 407.604 711.441 411.948 714.833C420.182 721.301 428.371 727.77 437.465 733.017C438.008 733.514 438.505 734.057 439.139 734.464C453.978 743.963 469.316 752.602 485.196 760.201C486.146 760.654 487.051 761.287 488.182 761.106C497.773 765.991 507.591 770.288 517.952 773.681C517.861 772.233 517.183 771.6 516.594 770.922C509.129 761.423 502.75 751.155 497.321 740.39C485.965 717.999 479.36 694.433 480.083 669.103C480.264 663.404 480.853 657.704 481.26 651.96C482.3 651.643 482.888 652.322 483.612 652.91C487.232 655.805 490.896 658.609 494.561 661.459C507.32 642.777 512.206 640.923 525.552 635.676C518.902 629.253 489.041 613.738 483.612 614.01C487.232 621.88 493.701 627.941 497.638 635.993C495.24 635.993 494.154 634.771 492.978 633.957C468.954 617.266 443.256 603.877 415.974 593.383C409.957 591.077 403.94 588.634 397.515 587.684C391.045 585.965 384.53 584.246 378.061 582.528C384.757 582.121 391.317 582.98 397.832 584.111C424.706 588.815 449.363 599.49 473.116 612.336C473.523 611.838 473.795 611.612 473.84 611.386C475.423 605.415 477.912 603.697 483.884 604.601C487.186 605.099 490.263 606.32 493.34 607.632C501.393 611.069 508.994 615.412 516.504 619.799C517.861 620.614 519.128 621.699 521.164 621.925C520.938 619.935 519.761 618.985 518.857 617.9C515.192 613.467 511.391 609.215 507.41 605.099C502.117 599.535 496.416 594.469 490.761 589.313C490.806 588.634 490.806 587.956 490.851 587.322C495.964 589.765 500.759 592.705 505.374 595.962C522.385 608.039 536.637 622.604 546.681 641.104C548.038 643.592 549.622 645.989 549.757 648.974C546.002 650.015 542.7 651.914 539.623 653.995C539.804 655.488 540.845 655.669 541.614 655.985C546.002 657.84 550.029 660.328 554.101 662.725C556.318 664.037 557.901 666.344 557.494 668.108C556.906 670.46 555.187 671.319 552.924 671.772C549.169 672.495 545.459 673.49 541.749 674.395C542.021 676.159 543.242 676.25 544.147 676.612C547.088 677.788 550.029 678.918 552.97 679.959C570.524 686.11 588.621 689.412 607.125 690.724C609.297 690.86 611.378 690.498 613.188 689.458C616.672 687.422 620.291 685.522 623.187 682.582C624.453 681.768 625.72 680.999 626.942 680.094C634.904 674.124 642.234 667.384 649.563 660.69C651.147 659.242 652.821 658.111 654.902 657.478C657.933 656.573 660.919 655.533 663.905 654.493C666.394 653.633 667.977 652.05 668.43 649.382C668.882 646.713 668.701 646.396 666.032 645.853C664.991 645.627 663.815 645.627 662.955 645.13C660.06 643.32 657.707 643.773 655.58 646.351C653.137 649.291 649.88 649.382 646.487 648.703C641.103 647.617 636.262 645.265 631.421 642.732C628.57 641.24 627.394 639.34 628.118 636.264C628.887 634.636 629.747 633.052 630.38 631.334C631.149 629.253 633.819 627.444 633.14 625.453C632.416 623.282 629.294 622.875 627.258 621.699C622.01 618.714 616.672 615.955 612.012 612.065C608.709 609.305 608.437 608.22 609.614 604.33C610.111 602.747 610.473 601.118 611.062 599.58C611.65 597.997 611.242 597.093 609.749 596.324C606.854 594.74 604.049 592.976 601.153 591.348C599.66 590.489 599.027 589.584 599.751 587.729C600.656 585.377 602.827 582.754 601.787 580.628C600.791 578.638 597.851 577.597 595.769 576.195C595.588 576.059 595.227 576.24 594.729 576.286C594.729 580.764 595.181 585.196 595.498 589.674C595.996 596.595 598.484 602.701 602.239 608.536C605.994 614.281 624.453 627.941 625.268 636.264C619.974 635.766 609.84 623.644 606.899 623.282C609.071 627.715 611.423 631.379 613.867 634.907C616.355 638.526 619.024 642.054 622.146 646.306C619.839 645.401 618.3 644.813 616.807 644.27C614.183 641.556 610.745 639.928 608.03 637.214C597.67 626.81 591.019 614.371 587.58 600.214C583.147 582.121 582.966 563.892 586.766 545.663C589.073 534.581 594.141 525.218 603.054 517.845C610.247 511.874 617.757 506.356 625.313 500.928C626.489 500.069 628.028 499.48 628.48 497.852C634.226 497.897 640.017 497.943 645.763 497.988C645.175 499.073 645.627 500.023 646.125 500.973C647.934 504.637 649.699 508.256 651.509 511.919C653.726 516.397 657.164 519.609 661.643 521.825C678.654 530.193 696.39 536.345 715.12 539.376C724.44 540.868 733.715 541.049 742.854 538.2C756.11 534.083 767.149 526.349 777.058 516.85C777.827 516.126 778.415 515.221 778.913 514.317C780.994 510.653 782.984 506.944 785.02 503.235C786.151 502.194 785.654 500.837 785.744 499.571C786.332 499.164 787.373 499.119 787.373 498.259C787.418 497.128 786.423 497.4 785.744 497.445C783.663 497.535 781.582 497.671 779.455 497.762C778.37 497.807 777.239 497.852 776.741 496.676C774.298 490.886 771.99 485.051 770.905 478.809C770.678 477.452 771.583 476.864 772.714 476.819C777.284 476.593 781.944 475.552 784.93 480.799C786.378 483.378 789.137 485.006 792.033 486.046C793.526 486.589 794.793 486.544 794.567 484.373C795.833 483.694 795.652 482.473 795.743 481.342C798.638 479.442 798.865 479.081 797.055 476.638C793.164 471.255 789.092 466.008 785.156 460.671C779.817 453.479 773.664 447.146 766.29 441.99C762.218 439.14 758.282 436.064 754.391 432.989C747.786 427.832 740.456 427.153 732.674 429.279C728.467 430.455 724.35 431.903 720.187 433.26C719.282 433.577 718.016 433.396 717.744 435.16C718.694 435.16 719.554 435.25 720.414 435.16C724.123 434.753 727.517 435.657 730.819 437.421C739.506 442.035 748.645 445.97 756.924 453.298C755.748 448.006 753.758 444.025 752.129 440C752.762 440 753.396 440 754.029 440C757.694 446.558 760.227 453.524 762.263 460.761C763.123 463.882 763.078 467.23 764.842 470.124C764.887 471.301 764.932 472.477 764.978 473.607C764.752 476.095 765.747 478.312 766.697 480.528C769.095 486.182 772.217 491.565 774.253 497.4C773.483 499.3 774.795 501.561 773.121 503.28C770.859 501.38 769.773 498.666 768.507 496.133C762.806 484.644 758.644 472.522 754.572 460.4C753.305 456.69 751.224 454.157 747.921 452.303C740.954 448.368 733.851 444.794 726.567 441.537C725.164 440.904 723.761 440.588 722.223 440.588C716.975 440.723 711.682 440.633 706.434 440.995C700.416 441.402 694.444 442.216 688.698 444.206C686.165 445.066 684.219 446.423 682.636 448.639C680.736 451.353 673.632 460.354 671.551 462.887C671.189 460.445 671.551 462.887 671.189 460.445C672.456 458.228 677.116 451.896 678.111 449.589C680.871 443.392 685.938 440.316 692.137 438.643C694.444 438.009 696.797 437.376 699.149 436.969C701.095 436.607 702.905 435.974 704.714 435.25C711.546 432.491 718.332 429.687 725.119 426.882C725.978 426.52 727.336 426.746 727.426 425.254C722.404 422.63 722.404 422.63 717.654 422.856C709.555 423.263 679.152 429.189 678.835 428.691C684.943 425.208 703.945 420.911 711.048 418.65C699.783 415.212 688.155 414.76 676.166 414.488C677.84 413.177 679.469 413.086 681.052 412.815C689.422 411.458 697.837 411.729 706.253 411.865C707.565 411.91 708.922 412.272 710.234 412.634C718.378 414.805 726.25 417.881 733.805 421.545C736.475 422.811 739.099 423.128 742.583 422.766C740.411 420.278 738.918 417.7 735.796 417.383C721.68 416.072 709.103 410.598 697.204 403.225C695.123 401.914 692.906 401.099 690.508 400.783C686.3 400.24 663.634 402.637 663.543 402.004C670.103 398.657 683.495 395.762 690.96 396.305C694.354 396.305 697.34 397.029 700.326 398.974C708.334 404.13 716.975 408.02 726.25 410.417C728.195 410.915 730.096 411.458 732.177 411.367C732.086 410.056 731.362 409.648 730.865 409.151C723.762 401.326 715.889 394.36 707.881 387.439C696.797 377.805 684.174 370.07 673.497 359.395C672.999 362.38 672.999 365.32 671.958 367.854C670.963 370.341 668.882 372.377 666.303 373.915C667.932 369.527 668.248 365.049 667.796 360.526C667.344 355.731 666.846 350.936 666.529 346.142C666.077 339.402 663.136 334.2 657.752 330.129C646.713 321.761 635.266 313.936 623.82 306.111C613.731 299.236 603.642 292.315 591.064 290.641C591.109 289.42 590.974 288.199 591.245 287.068C591.652 285.304 590.747 285.078 589.39 284.806C580.432 283.178 571.429 281.911 562.471 280.283C558.082 279.469 553.648 278.609 549.214 278.067C539.487 276.936 529.534 276.891 520.44 272.639C508.858 268.296 497.638 263.185 486.327 258.21C482.346 256.445 478.319 254.772 474.021 253.822C457.824 250.249 441.672 246.675 425.566 242.65C419.594 241.157 414.119 241.428 408.373 243.283C391 248.892 375.21 257.576 359.783 267.12C359.285 267.437 358.832 267.844 358.968 268.568C359.466 269.02 360.054 268.93 360.642 268.794C365.393 267.98 370.234 267.844 375.029 267.618C377.156 267.527 379.282 267.527 381.273 268.387C382.223 268.794 383.445 269.246 383.671 270.287C383.897 271.644 382.585 272.367 381.59 272.955C378.92 274.539 375.844 274.81 372.903 275.127C350.87 277.298 328.791 279.333 306.758 281.414C282.146 283.721 257.534 286.028 232.967 288.334C227.492 288.877 226.226 290.234 226.045 295.617C225.818 302.221 227.673 308.418 229.845 314.569C230.931 317.645 231.202 318.731 235.003 317.917C236.315 317.645 237.717 317.736 239.075 317.917C243.237 318.55 245.363 321.58 244.413 325.742C244.006 327.506 243.373 329.225 242.513 330.808C241.246 333.16 241.653 334.834 243.418 336.824C249.842 344.016 256.538 350.936 263.37 357.812C264.818 359.259 266.266 359.712 268.211 359.44C270.156 359.169 272.102 358.897 274.047 358.988C279.115 359.214 281.558 362.787 280.291 367.673C279.929 368.939 278.934 370.025 279.25 371.653C281.603 372.422 283.956 371.336 286.308 371.336C290.018 371.382 293.547 371.698 296.171 374.774C296.85 376.493 295.402 378.212 295.945 380.066C338.564 380.066 380.911 380.066 423.304 380.066C423.394 380.066 423.53 379.931 423.575 379.795C423.801 379.252 423.032 379.569 423.937 379.252C419.186 377.126 414.707 375.091 410.183 373.055C408.193 372.015 406.247 370.929 404.211 369.934C386.566 361.385 361.004 349.308 343.314 340.804C343.993 340.081 598.032 336.869 597.398 333.839C601.56 334.562 622.553 351.66 624.453 355.143C626.127 358.219 626.761 361.747 628.39 365.094C630.425 355.324 628.616 341.935 627.53 336.01C628.073 336.055 637.574 353.922 631.692 369.844C631.466 370.387 631.285 370.975 631.149 371.563C631.059 371.97 631.014 372.467 631.104 372.874C632.235 379.297 633.954 380.971 640.696 382.011C642.777 382.328 644.858 382.554 646.939 382.871C647.934 383.006 649.111 382.645 650.74 383.821C642.551 385.856 635.266 388.299 627.394 386.716C626.489 386.218 626.67 384.771 625.358 384.409C623.865 387.123 617.26 396.214 615.902 395.672ZM725.074 548.603C715.165 547.97 706.479 546.432 697.928 544.035C696.118 543.537 695.032 543.899 694.851 545.934C694.761 546.975 694.444 548.015 694.354 549.055C693.765 556.157 690.87 562.263 686.662 567.963C683.721 571.943 710.641 561.902 725.074 548.603ZM160.488 388.299C160.443 388.615 160.443 388.932 160.397 389.249C288.163 405.487 415.974 421.771 543.74 438.009C530.122 424.982 515.599 413.267 501.845 400.466C533.877 401.416 565.683 402.818 597.851 405.216C596.403 398.838 594.186 393.365 590.702 388.344C589.797 387.032 588.531 386.399 586.947 386.127C583.509 385.539 580.206 384.499 576.948 383.233C576.089 382.916 574.686 382.961 574.867 381.288C575.772 381.242 576.677 381.152 577.536 381.107C592.602 380.564 607.035 377.171 620.97 371.427C622.689 370.703 623.413 369.934 623.096 368.125C622.644 365.773 622.372 363.375 621.829 361.023C621.06 357.586 620.789 357.405 617.305 357.314C600.429 356.817 583.554 356.319 566.678 355.867C534.284 354.962 501.89 354.058 469.497 353.198C442.668 352.474 415.839 351.796 389.009 351.117C388.105 351.072 387.019 350.665 385.978 351.932C410.817 363.918 435.429 375.769 460.041 387.62C459.996 387.846 459.905 388.072 459.86 388.344C360.145 388.299 260.294 388.299 160.488 388.299ZM650.332 600.485C651.282 599.309 652.187 598.133 653.137 597.002C661.869 586.644 670.239 575.969 678.473 565.158C683.088 559.097 685.984 552.629 686.617 545.03C686.934 541.14 687.205 541.095 683.269 539.738C674.311 536.571 665.579 532.907 657.119 528.61C651.554 525.761 647.301 521.69 644.406 516.171C643.229 513.91 642.189 511.558 640.922 509.341C639.836 507.396 639.384 505.089 637.529 503.19C628.978 509.477 620.472 515.719 612.69 522.775C613.505 524.358 614.681 524.856 615.586 525.625C621.467 530.601 627.258 535.621 632.099 541.637C634.678 544.894 636.443 548.377 636.488 552.719C636.578 563.575 637.71 574.386 639.338 585.106C640.741 594.514 642.415 603.832 646.215 612.607C647.799 616.226 647.844 616.271 651.418 614.371C662.457 608.446 672.773 601.39 683.088 594.333C686.074 592.298 686.843 589.629 687.25 585.875C675.035 591.619 662.955 596.505 650.332 600.485ZM639.61 618.623C637.483 613.195 635.809 608.763 634.633 604.149C630.471 587.729 628.887 570.948 628.254 554.031C628.163 551.136 627.304 548.784 625.539 546.613C620.472 540.371 614.364 535.26 608.166 530.193C606.492 528.836 605.587 529.47 604.501 530.827C602.33 533.405 600.746 536.3 599.615 539.421C597.081 546.568 596.041 554.031 595.136 561.54C594.865 563.801 596.041 565.294 597.489 566.651C600.248 569.229 603.325 571.4 606.718 573.119C612.645 576.15 612.645 576.195 610.473 582.618C609.252 586.237 609.297 586.146 612.464 588.227C615.043 589.946 618.888 590.534 620.02 593.564C621.196 596.685 619.658 600.078 618.617 603.244C617.893 605.551 618.527 606.908 620.472 608.084C626.354 611.703 632.371 615.14 639.61 618.623ZM677.885 607.948C676.121 609.079 674.809 609.984 673.451 610.843C665.127 616.226 656.847 621.88 647.482 625.227C642.686 626.946 640.334 630.339 638.162 634.364C637.483 635.631 637.348 636.535 638.931 637.214C641.284 638.209 643.591 639.295 646.034 640.018C648.251 640.652 650.016 640.471 651.78 638.797C654.495 636.219 657.526 633.957 660.286 631.379C665.941 625.996 671.687 620.614 675.759 613.829C676.799 612.245 678.066 610.662 677.885 607.948ZM666.755 637.304C667.434 637.892 668.248 637.711 668.837 637.304C673.044 634.364 676.211 630.293 679.604 626.539C683.586 622.151 687.432 617.628 690.372 612.019C685.893 612.833 685.486 612.833 684.626 614.598C680.555 623.056 673.994 629.434 667.434 635.812C666.982 636.264 666.484 636.581 666.755 637.304ZM290.335 378.212C286.761 378.212 284.091 378.755 281.512 379.75C284.227 379.614 287.213 381.061 290.335 378.212ZM607.035 621.97C606.944 622.061 606.854 622.151 606.718 622.242C606.809 622.332 606.899 622.423 606.99 622.513C607.08 622.378 607.171 622.242 607.261 622.061C607.171 622.061 607.08 622.016 607.035 621.97ZM521.933 621.925C521.797 622.061 521.616 622.151 521.662 622.287C521.662 622.378 521.843 622.513 521.978 622.604C522.069 622.513 522.25 622.378 522.25 622.287C522.204 622.106 522.024 622.016 521.933 621.925Z" fill="#08090A"/>
<path d="M348.329 340.712C351.722 332.977 355.116 325.106 357.83 317.01C360.545 308.868 363.214 300.771 364.798 292.087C363.259 292.448 362.988 293.398 362.49 294.122C357.423 301.269 353.261 308.958 349.867 317.01C348.646 319.905 347.017 320.674 344.076 320.583C338.647 320.402 333.263 319.905 327.925 319.045C306.615 315.698 285.939 309.818 265.444 303.169C260.422 301.54 252.686 304.707 250.514 309.501C249.971 310.722 251.374 310.225 251.917 310.451C252.64 311.537 253.817 311.898 254.948 312.17C262.503 313.934 270.059 315.653 277.615 317.372C278.203 317.507 278.61 317.326 278.927 316.919C279.696 316.965 279.967 317.01 280.691 317.055C281.913 318.91 283.406 319.859 285.577 318.412C286.211 318.638 286.482 318.774 287.07 319C287.251 319.769 287.749 320.221 288.518 320.447C292.364 321.624 296.209 322.935 300.1 324.066C308.289 326.509 316.523 328.816 324.893 330.534C326.205 330.806 327.517 331.303 328.739 331.801C333.399 333.836 335.118 337.319 333.173 341.933C331.001 347.089 330.141 352.291 330.639 357.764C331.046 362.016 331.861 366.132 334.304 370.384C336.792 364.73 338.738 359.574 340.502 354.327C342.99 351.522 344.438 348.085 346.112 344.783C346.972 343.109 347.877 342.566 349.551 343.652C350.048 343.968 350.636 344.059 351.225 344.285C368.915 352.834 386.559 361.338 404.249 369.887C406.285 370.882 408.231 371.967 410.221 373.008C410.267 375.089 411.986 375.586 413.479 376.31C414.338 376.717 415.65 376.445 415.786 378.029C414.338 378.662 412.845 378.345 411.398 378.345C375.611 378.345 339.823 378.345 304.036 378.345C301.141 378.345 297.929 379.024 296.978 374.953C296.933 374.817 296.436 374.772 296.164 374.727C293.54 371.651 290.011 371.334 286.301 371.289C283.949 371.244 281.596 372.375 279.243 371.606C278.927 370.022 279.967 368.892 280.284 367.625C281.596 362.74 279.108 359.167 274.04 358.94C272.095 358.85 270.104 359.076 268.204 359.393C266.259 359.709 264.811 359.212 263.363 357.764C256.531 350.934 249.835 344.014 243.411 336.776C241.646 334.786 241.239 333.067 242.506 330.761C243.366 329.177 243.999 327.459 244.406 325.694C245.356 321.578 243.275 318.502 239.068 317.869C237.756 317.688 236.308 317.598 234.996 317.869C231.241 318.683 230.924 317.598 229.838 314.522C227.666 308.416 225.766 302.219 226.038 295.569C226.219 290.187 227.485 288.785 232.96 288.287C257.572 285.935 282.139 283.673 306.751 281.366C328.784 279.286 350.863 277.205 372.896 275.079C375.882 274.808 378.913 274.491 381.583 272.908C382.578 272.32 383.89 271.596 383.664 270.239C383.483 269.199 382.261 268.747 381.266 268.339C379.275 267.48 377.149 267.48 375.022 267.57C370.227 267.797 365.386 267.887 360.635 268.747C360.092 268.837 359.459 268.973 358.961 268.52C358.825 267.797 359.278 267.39 359.776 267.073C375.203 257.529 390.993 248.844 408.366 243.235C414.112 241.381 419.587 241.109 425.559 242.602C441.62 246.628 457.817 250.201 474.014 253.775C478.357 254.724 482.338 256.398 486.32 258.162C497.631 263.138 508.896 268.249 520.433 272.591C519.981 273.677 519.076 273.586 518.171 273.451C516.406 273.179 514.642 272.863 512.877 272.591C503.422 271.099 493.966 269.651 484.51 268.159C482.293 267.57 480.167 266.349 477.316 267.751C479.714 269.199 481.931 269.696 484.284 269.832C491.749 271.596 499.214 273.451 506.679 275.079C526.088 279.286 545.724 282.542 565.314 285.799C572.372 286.975 579.384 288.287 586.442 289.554C587.347 289.825 588.795 290.187 589.655 290.458C590.107 290.684 590.605 290.684 591.102 290.549C603.68 292.222 613.769 299.098 623.858 306.018C635.305 313.843 646.751 321.669 657.79 330.037C663.219 334.153 666.115 339.355 666.567 346.094C666.839 350.482 667.156 354.869 667.698 359.212C668.332 364.187 668.106 369.027 666.341 373.822C668.92 372.284 671.001 370.249 671.997 367.761C673.037 365.228 673.037 362.288 673.535 359.302C684.212 369.977 696.835 377.757 707.919 387.347C715.882 394.267 723.8 401.233 730.903 409.058C731.4 409.601 732.079 410.008 732.215 411.275C730.134 411.365 728.233 410.822 726.288 410.325C717.013 407.927 708.372 404.083 700.364 398.881C697.378 396.981 694.392 396.212 690.999 396.212C683.669 396.212 663.672 401.007 663.898 401.911C666.206 401.369 686.293 400.102 690.501 400.645C692.944 400.962 695.116 401.776 697.197 403.088C709.096 410.415 721.673 415.888 735.789 417.245C738.911 417.517 740.404 420.095 742.575 422.628C739.137 422.99 736.468 422.673 733.798 421.407C726.198 417.743 718.371 414.667 710.227 412.496C708.915 412.134 707.603 411.727 706.245 411.727C697.83 411.546 689.37 411.32 681.045 412.677C679.462 412.948 677.833 413.039 676.159 414.35C688.148 414.622 699.73 415.074 711.041 418.512C703.938 420.819 682.267 426.608 678.828 428.553C682.855 428.056 709.548 423.126 717.647 422.718C722.397 422.492 722.397 422.492 727.419 425.116C727.329 426.608 725.971 426.382 725.112 426.744C718.325 429.594 711.494 432.353 704.707 435.112C702.897 435.836 701.088 436.469 699.142 436.831C696.79 437.283 694.437 437.871 692.13 438.505C685.931 440.178 680.864 443.254 678.104 449.451C677.064 451.758 671.499 459.538 671.499 461.98C673.173 460.035 680.683 451.17 682.583 448.501C684.167 446.285 686.112 444.928 688.646 444.068C694.392 442.078 700.364 441.264 706.381 440.857C711.629 440.495 716.923 440.585 722.171 440.45C723.573 440.404 724.976 440.676 726.243 441.264C733.617 444.566 740.856 448.184 747.914 452.165C751.217 454.019 753.298 456.552 754.565 460.262C758.637 472.384 762.799 484.506 768.5 495.995C769.766 498.528 770.852 501.197 773.114 503.142C774.969 505.178 775.557 505.087 775.377 504.363C774.743 501.514 776.508 502.373 777.91 502.509C780.263 502.735 782.615 502.916 785.013 503.142C782.977 506.851 780.987 510.56 778.906 514.224C778.408 515.129 777.774 516.033 777.051 516.757C767.142 526.256 756.103 533.946 742.847 538.107C733.708 540.957 724.433 540.776 715.113 539.283C696.337 536.298 678.647 530.101 661.636 521.733C657.112 519.516 653.718 516.305 651.502 511.827C649.692 508.163 647.927 504.544 646.118 500.88C645.62 499.931 645.168 498.981 645.756 497.895C659.826 498.393 673.942 498.89 688.012 499.388C704.209 500.473 720.406 501.604 736.739 502.69C736.422 501.966 735.97 501.876 735.518 501.83C727.148 500.926 718.823 499.84 710.453 499.207C702.988 498.619 695.523 497.443 688.012 497.85C674.711 496.538 661.365 496.086 648.018 495.995C650.416 492.467 654.442 490.703 657.202 487.537C658.967 486.27 660.957 486.723 662.903 486.949C669.915 487.899 676.928 488.803 683.941 489.844C702.988 492.648 722.035 495.543 741.082 498.393C715.158 491.834 688.691 488.215 662.269 484.235C662.45 482.923 663.355 482.29 664.079 481.521C664.712 480.842 664.17 479.757 663.265 479.802C640.688 481.611 583.366 476.41 580.018 477.993C584.768 479.395 630.961 482.968 647.611 484.959C648.38 485.049 649.104 485.23 649.42 485.999C644.353 488.758 638.924 490.884 634.49 494.684C631.097 495.453 627.659 495.724 624.175 495.769C612.864 495.905 567.486 498.393 567.531 498.393C579.837 499.026 609.652 497.443 621.958 497.94C621.913 499.704 620.284 499.931 619.153 500.519C608.837 505.811 598.975 511.917 589.79 519.019C584.452 523.135 579.52 527.975 577.032 534.534C573.593 543.58 572.327 553.124 571.422 562.668C570.788 569.453 571.467 576.238 572.417 582.887C574.091 594.829 577.168 606.363 583.004 617.128C587.935 626.175 594.269 633.865 603.092 639.157C607.254 641.645 611.507 644.585 616.845 644.087C618.339 644.675 619.832 645.263 622.184 646.123C619.062 641.825 616.438 638.343 613.905 634.724C611.462 631.196 609.154 627.577 606.937 623.099C609.833 623.461 625.442 635.674 628.111 636.081C627.387 639.157 628.518 641.056 631.414 642.549C636.255 645.082 641.096 647.389 646.48 648.52C649.873 649.198 653.13 649.153 655.573 646.168C657.7 643.59 660.052 643.137 662.948 644.947C663.808 645.489 664.984 645.489 666.025 645.67C668.694 646.213 668.875 646.53 668.422 649.198C667.97 651.867 666.341 653.45 663.898 654.31C661.048 655.26 658.198 656.255 655.302 657.159C653.221 657.793 651.321 658.878 649.737 660.326C642.317 667.065 634.943 673.895 626.935 679.911C625.758 680.816 624.446 681.585 623.18 682.399C615.081 682.263 606.983 682.309 598.929 681.178C590.921 680.092 582.913 679.007 574.996 677.604C570.426 676.79 565.676 676.519 561.197 674.71C561.423 674.303 561.513 674.167 561.604 674.076C562.373 673.624 563.188 673.262 564.002 672.81C569.25 670.005 570.291 667.065 566.762 662.316C562.328 656.39 556.853 651.505 549.796 648.746C549.66 645.761 548.031 643.363 546.719 640.876C536.72 622.421 522.424 607.81 505.412 595.733C500.798 592.477 496.002 589.537 490.889 587.094C489.577 585.827 488.13 584.832 485.822 584.787C487.406 586.777 489.034 587.999 490.799 589.129C496.454 594.286 502.155 599.397 507.448 604.916C511.384 609.077 515.23 613.329 518.895 617.716C519.8 618.802 520.976 619.752 521.202 621.742C519.166 621.516 517.899 620.385 516.542 619.616C508.987 615.229 501.431 610.886 493.378 607.449C490.346 606.137 487.225 604.916 483.922 604.418C477.95 603.559 475.462 605.232 473.878 611.203C473.788 611.474 473.516 611.655 473.154 612.153C449.402 599.307 424.744 588.632 397.87 583.928C391.355 582.797 384.84 581.937 378.099 582.345C384.569 584.063 391.084 585.782 397.553 587.501C399.635 590.125 402.937 590.396 405.697 591.662C415.831 596.231 426.192 600.166 435.919 605.73C448.452 612.831 460.215 620.838 469.716 631.739C474.873 637.619 479.669 643.861 481.207 651.867C480.8 657.566 480.212 663.266 480.031 669.01C479.307 694.341 485.913 717.907 497.269 740.297C502.743 751.062 509.077 761.33 516.542 770.829C517.085 771.507 517.809 772.141 517.899 773.588C507.493 770.196 497.676 765.899 488.13 761.013C488.22 759.611 487.315 758.933 486.275 758.209C473.199 749.117 460.396 739.709 448.361 729.215C440.127 722.023 431.712 714.967 423.658 707.503C413.931 698.502 404.114 689.591 394.929 680.002C392.984 677.966 391.355 674.981 388.64 674.393C385.564 673.714 383.392 676.836 380.723 678.147C377.239 679.866 377.149 680.092 374.525 677.559C364.662 668.151 356.382 657.521 350.229 645.263C346.519 637.845 343.262 630.291 340.593 622.466C337.426 613.193 335.254 603.74 333.354 594.15C331.951 586.913 331.227 579.631 330.458 572.348C329.689 564.885 328.784 557.467 328.829 549.913C328.92 537.293 328.422 524.628 329.734 512.053C330.187 507.892 330.232 503.64 330.82 499.524C331.906 491.97 332.223 484.325 334.123 476.862C334.394 475.867 334.756 474.465 333.308 473.515C329.463 474.555 325.572 475.641 321.681 476.591C319.509 477.133 318.695 476.41 319.283 474.329C319.871 472.293 319.826 470.168 320.324 468.132C321.907 461.709 323.626 455.331 325.753 449.089C326.386 447.28 326.341 445.063 327.563 443.571C329.191 441.535 331.499 443.345 333.489 443.345C344.619 443.525 355.749 443.028 366.879 444.023C377.33 444.928 387.917 444.114 398.413 444.973C409.362 445.832 420.356 444.837 431.35 445.832C441.213 446.737 451.166 445.878 461.074 446.737C471.706 447.642 482.384 446.647 493.106 447.642C503.738 448.592 514.416 447.551 525.138 448.546C532.92 449.27 540.792 448.772 548.619 448.727C549.931 448.727 551.379 449.18 552.329 447.777C558.392 448.365 564.454 448.953 570.517 449.541C570.653 449.225 570.653 449.225 570.788 448.863C567.757 446.239 564.771 443.616 561.74 441.038C551.967 432.76 542.15 424.528 532.377 416.25C532.06 415.979 531.789 415.572 531.517 415.21C534.684 414.938 537.851 414.531 541.018 414.396C544.774 414.215 548.574 414.758 552.239 414.17C562.192 412.677 572.281 414.26 582.189 412.586C584.723 413.762 586.759 412.993 588.523 411.048C590.921 410.551 593.229 411.456 595.581 411.456C595.943 411.501 596.35 411.546 596.712 411.546C598.341 411.682 600.015 411.682 601.599 411.998C610.421 413.581 618.293 411.229 625.034 405.666C627.523 403.63 629.423 402.997 632.047 404.806C632.5 405.123 633.178 405.123 633.721 405.304C633.857 405.756 634.128 405.982 634.581 405.892C634.671 405.892 634.852 405.44 634.762 405.349C634.535 405.033 634.219 404.761 633.812 405.123C634.49 403.721 633.269 402.952 632.681 402.047C630.961 399.469 629.106 396.981 627.342 394.448C627.387 391.825 627.432 389.156 627.478 386.532C635.305 388.161 642.634 385.673 650.823 383.637C649.239 382.461 648.063 382.869 647.023 382.688C644.941 382.371 642.86 382.145 640.779 381.828C634.038 380.788 632.319 379.114 631.188 372.736C631.097 372.284 631.097 371.877 631.188 371.425C631.323 370.791 631.459 370.158 631.73 369.57C635.078 362.152 632.816 348.899 630.056 341.39C625.396 329.811 633.088 358.94 628.473 364.821C626.844 361.428 626.211 357.9 624.537 354.87C622.637 351.387 600.513 334.922 596.351 334.198C596.984 337.229 609.516 345.913 611.371 347.27C611.19 348.627 349.958 342.25 348.329 340.712Z" fill="#E5E5E5"/>
<path d="M552.38 447.914C551.43 449.316 549.937 448.864 548.67 448.864C540.843 448.864 532.925 449.407 525.189 448.683C514.511 447.688 503.789 448.728 493.157 447.778C482.479 446.783 471.757 447.824 461.125 446.874C451.171 446.014 441.218 446.874 431.4 445.969C420.406 444.974 409.412 445.969 398.463 445.11C387.922 444.25 377.38 445.064 366.929 444.16C355.799 443.21 344.67 443.662 333.54 443.481C331.594 443.436 329.242 441.672 327.613 443.707C326.437 445.2 326.437 447.417 325.803 449.226C323.632 455.468 321.958 461.846 320.374 468.269C319.877 470.349 319.922 472.43 319.334 474.466C318.7 476.546 319.515 477.225 321.731 476.727C325.668 475.777 329.558 474.647 333.359 473.651C334.761 474.601 334.399 475.958 334.173 476.999C332.318 484.462 331.956 492.106 330.871 499.66C330.282 503.822 330.192 508.028 329.785 512.19C328.473 524.81 328.925 537.429 328.88 550.049C328.835 557.558 329.739 565.021 330.509 572.485C331.232 579.812 332.002 587.095 333.404 594.287C335.259 603.876 337.476 613.33 340.643 622.603C343.312 630.428 346.57 638.027 350.28 645.4C356.433 657.613 364.712 668.242 374.575 677.696C377.199 680.229 377.29 680.003 380.773 678.284C383.443 676.972 385.614 673.851 388.691 674.53C391.406 675.118 393.034 678.103 394.98 680.138C404.164 689.728 413.982 698.639 423.709 707.64C431.717 715.058 440.177 722.114 448.412 729.352C460.446 739.846 473.25 749.254 486.325 758.346C487.366 759.069 488.27 759.748 488.18 761.15C487.049 761.331 486.144 760.698 485.194 760.246C469.314 752.646 453.976 744.007 439.137 734.508C438.503 734.101 438.006 733.558 437.463 733.061C438.503 731.885 437.282 731.432 436.694 730.98C425.066 722.748 413.846 714.063 402.761 705.107C401.721 704.293 400.68 703.931 399.459 704.112C399.459 704.112 399.459 704.157 399.504 704.157C398.328 700.765 397.513 700.086 395.025 700.448C392.537 699.227 390.998 696.875 388.962 695.111C387.65 693.98 386.655 693.98 385.479 695.201C383.805 696.965 382.04 698.593 380.411 700.357C378.828 702.167 377.606 701.85 375.978 700.267C367.02 691.673 358.921 682.355 351.592 672.404C332.499 646.531 318.836 618.034 310.466 587.004C306.349 571.716 303.589 556.201 302.368 540.37C301.236 525.624 301.146 510.878 302.413 496.132C302.594 493.916 302.458 491.654 302.458 489.076C299.11 490.795 298.069 494.639 294.948 497.037C293.907 493.373 294.405 490.026 294.676 486.724C295.943 470.983 297.662 455.242 300.739 439.727C302.096 432.806 303.815 425.931 305.218 418.965C305.67 416.658 306.801 416.025 309.018 416.342C318.7 417.653 328.427 418.83 338.109 420.096C351.23 421.77 364.395 423.488 377.516 425.162C395.885 427.559 414.253 429.957 432.577 432.309C445.697 433.982 458.863 435.475 472.028 437.149C484.289 438.687 496.505 440.27 508.765 441.853C522.203 443.572 535.64 445.291 549.077 447.055C550.163 447.19 551.475 446.874 552.38 447.914Z" fill="#606060" style="mix-blend-mode:luminosity"/>
<path d="M639.613 618.622C632.329 615.139 626.357 611.701 620.43 608.083C618.484 606.861 617.851 605.505 618.575 603.243C619.616 600.122 621.154 596.684 619.977 593.563C618.846 590.578 615.001 589.944 612.422 588.226C609.255 586.1 609.21 586.19 610.431 582.617C612.603 576.194 612.603 576.149 606.676 573.118C603.283 571.399 600.206 569.228 597.446 566.65C595.999 565.293 594.822 563.845 595.094 561.538C595.999 554.03 597.039 546.612 599.573 539.42C600.704 536.253 602.287 533.404 604.459 530.825C605.59 529.468 606.495 528.835 608.124 530.192C614.322 535.258 620.385 540.415 625.497 546.612C627.307 548.783 628.121 551.135 628.212 554.03C628.845 570.902 630.429 587.683 634.591 604.148C635.813 608.761 637.532 613.194 639.613 618.622Z" fill="#7A7A7A" style="mix-blend-mode:luminosity"/>
<path d="M616.901 644.135C611.562 644.677 607.309 641.737 603.147 639.204C594.325 633.912 587.991 626.222 583.059 617.176C577.178 606.456 574.146 594.876 572.472 582.935C571.522 576.286 570.844 569.455 571.477 562.716C572.382 553.172 573.603 543.628 577.087 534.581C579.575 528.022 584.507 523.182 589.846 519.066C599.03 512.01 608.848 505.904 619.208 500.566C620.339 499.978 621.923 499.797 622.013 497.988C624.185 497.897 626.402 497.807 628.574 497.762C628.121 499.39 626.628 499.978 625.407 500.838C617.851 506.265 610.341 511.784 603.147 517.755C594.234 525.127 589.167 534.491 586.86 545.573C583.059 563.801 583.285 581.985 587.674 600.123C591.158 614.281 597.763 626.72 608.124 637.123C610.838 639.792 614.277 641.375 616.901 644.135Z" fill="#606060" style="mix-blend-mode:luminosity"/>
<path d="M481.217 652.003C479.678 643.997 474.883 637.754 469.725 631.874C460.224 621.018 448.461 613.012 435.928 605.865C426.201 600.347 415.795 596.412 405.706 591.798C402.946 590.532 399.644 590.26 397.562 587.637C403.987 588.632 410.004 591.029 416.022 593.336C443.258 603.83 469.001 617.219 493.025 633.91C494.201 634.724 495.242 635.945 497.685 635.945C493.749 627.894 487.234 621.833 483.66 613.962C489.044 613.691 518.949 629.16 525.6 635.629C512.253 640.876 507.367 642.73 494.608 661.411C490.944 658.562 487.279 655.712 483.66 652.862C482.845 652.365 482.257 651.686 481.217 652.003ZM498.545 637.664L498.68 637.438L498.454 637.393L498.545 637.664Z" fill="#606060" style="mix-blend-mode:luminosity"/>
<path d="M764.924 469.944C763.204 467.049 763.25 463.702 762.39 460.581C760.354 453.389 757.821 446.378 754.156 439.819C753.839 438.643 752.98 437.965 751.984 437.422C751.668 436.789 751.306 436.246 750.491 436.246C750.446 436.11 750.446 435.974 750.355 435.884C750.31 435.839 750.129 435.839 750.129 435.839C750.084 436.11 750.22 436.201 750.582 436.155C750.22 437.015 750.627 437.648 751.215 438.236C751.351 438.914 751.622 439.503 752.256 439.819C753.839 443.89 755.83 447.825 757.051 453.118C748.772 445.79 739.633 441.855 730.946 437.241C727.644 435.477 724.296 434.572 720.54 434.979C719.681 435.07 718.821 434.979 717.871 434.979C718.097 433.215 719.409 433.396 720.314 433.079C724.477 431.677 728.594 430.23 732.801 429.099C740.583 426.973 747.912 427.652 754.518 432.808C758.454 435.884 762.345 438.96 766.417 441.809C773.791 446.966 779.944 453.253 785.283 460.49C789.219 465.828 793.291 471.075 797.182 476.458C798.946 478.945 798.72 479.262 795.87 481.162C792.658 477.181 788.314 474.422 784.785 470.758C783.881 469.854 782.749 469.627 781.483 469.582C775.963 469.492 770.443 469.22 764.924 469.944Z" fill="#7A7A7A" style="mix-blend-mode:luminosity"/>
<path d="M549.762 648.883C556.82 651.642 562.294 656.527 566.728 662.453C570.257 667.202 569.216 670.142 563.968 672.947C563.154 673.354 562.384 673.761 561.57 674.213C561.48 674.258 561.434 674.439 561.163 674.846C565.642 676.656 570.392 676.927 574.962 677.741C582.925 679.143 590.887 680.229 598.895 681.315C606.949 682.4 615.047 682.355 623.146 682.536C620.25 685.476 616.676 687.376 613.147 689.411C611.292 690.452 609.256 690.859 607.084 690.678C588.58 689.366 570.438 686.064 552.929 679.912C549.943 678.872 547.002 677.741 544.106 676.565C543.201 676.203 541.98 676.113 541.708 674.349C545.418 673.444 549.128 672.449 552.883 671.725C555.191 671.273 556.865 670.414 557.453 668.061C557.905 666.297 556.322 663.991 554.06 662.679C549.988 660.281 545.961 657.794 541.573 655.939C540.804 655.622 539.763 655.396 539.582 653.949C542.704 651.778 546.007 649.878 549.762 648.883Z" fill="#606060" style="mix-blend-mode:luminosity"/>
<path d="M678.07 579.995C680.468 575.653 683.726 571.899 686.666 567.963C690.874 562.309 693.77 556.158 694.358 549.056C694.448 548.016 694.765 546.975 694.855 545.935C695.036 543.9 696.077 543.492 697.932 544.035C706.483 546.433 715.17 547.97 725.078 548.604C710.645 561.902 678.251 580.176 678.07 579.995Z" fill="white"/>
<path d="M628.16 636.127C625.491 635.674 623.5 633.91 621.283 632.644C620.379 631.92 606.082 614.144 602.327 608.399C598.526 602.609 596.083 596.503 595.586 589.537C595.269 585.059 594.816 580.626 594.816 576.148C595.314 576.103 595.676 575.967 595.857 576.058C597.938 577.46 600.879 578.5 601.874 580.491C602.96 582.617 600.743 585.24 599.838 587.592C599.114 589.447 599.748 590.351 601.241 591.211C604.136 592.839 606.941 594.603 609.837 596.186C611.33 597 611.737 597.86 611.149 599.443C610.561 600.981 610.199 602.609 609.701 604.192C608.48 608.082 608.751 609.168 612.099 611.927C616.759 615.817 622.098 618.576 627.346 621.562C629.427 622.738 632.504 623.145 633.228 625.316C633.861 627.306 628.93 634.498 628.16 636.127Z" fill="#F2F2F3"/>
<path d="M677.885 607.949C678.021 610.663 676.754 612.201 675.804 613.784C671.687 620.569 665.986 625.907 660.331 631.335C657.617 633.913 654.585 636.174 651.825 638.753C650.061 640.426 648.296 640.607 646.08 639.974C643.591 639.25 641.329 638.165 638.976 637.17C637.393 636.536 637.529 635.586 638.207 634.32C640.379 630.339 642.686 626.902 647.527 625.183C656.893 621.836 665.172 616.182 673.497 610.799C674.809 609.985 676.166 609.125 677.885 607.949Z" fill="#F2F2F3"/>
<path d="M774.342 497.264C772.352 491.429 769.23 486.046 766.787 480.392C765.837 478.175 764.841 475.959 765.068 473.471C769.682 473.426 774.342 473.426 778.957 473.245C781.265 473.155 782.893 473.969 784.522 475.507C787.825 478.537 790.766 481.975 794.657 484.282C794.883 486.453 793.616 486.498 792.123 485.955C789.227 484.915 786.468 483.287 785.02 480.708C782.034 475.461 777.374 476.457 772.804 476.728C771.673 476.773 770.723 477.361 770.995 478.718C772.08 484.96 774.433 490.795 776.831 496.585C777.328 497.761 778.46 497.716 779.545 497.671C781.627 497.535 783.708 497.399 785.834 497.354C786.513 497.309 787.508 497.037 787.463 498.168C787.418 499.073 786.422 499.073 785.834 499.48C781.943 498.937 777.871 499.661 774.342 497.264Z" fill="#7A7A7A" style="mix-blend-mode:luminosity"/>
<path d="M628.527 497.761C626.355 497.852 624.138 497.897 621.966 497.987C609.66 497.49 566.861 499.48 567.539 498.44C567.539 498.44 612.873 495.952 624.183 495.816C627.667 495.771 631.105 495.499 634.499 494.73C634.951 495.364 635.494 495.861 636.263 495.861C640.199 495.907 644.135 495.952 648.072 495.997C661.418 496.087 674.765 496.54 688.066 497.852C688.066 498.349 688.066 498.847 688.066 499.344C673.996 498.847 659.88 498.349 645.809 497.852C640.064 497.852 634.272 497.806 628.527 497.761Z" fill="#08090A"/>
<path d="M794.654 484.235C790.763 481.928 787.823 478.491 784.52 475.46C782.891 473.967 781.262 473.108 778.955 473.199C774.34 473.425 769.68 473.379 765.065 473.425C765.02 472.249 764.975 471.073 764.93 469.942C770.449 469.218 775.969 469.489 781.489 469.625C782.71 469.67 783.887 469.851 784.791 470.801C788.32 474.42 792.664 477.224 795.876 481.205C795.74 482.335 795.966 483.557 794.654 484.235Z" fill="#1F2125"/>
<path d="M774.346 497.262C777.83 499.659 781.947 498.935 785.838 499.478C785.747 500.699 786.245 502.102 785.114 503.142C782.761 502.916 780.409 502.735 778.011 502.509C776.653 502.373 774.889 501.559 775.477 504.363C775.613 505.087 775.025 505.177 773.215 503.142C774.889 501.423 773.577 499.161 774.346 497.262Z" fill="#1F2125"/>
<path d="M490.762 589.268C488.997 588.183 487.369 586.916 485.785 584.926C488.093 584.971 489.54 586.011 490.852 587.233C490.807 587.911 490.762 588.59 490.762 589.268Z" fill="#1A3037"/>
<path d="M736.93 549.28C737.065 549.144 737.246 549.054 737.382 548.918C737.246 549.054 737.156 549.235 737.02 549.37L736.93 549.28Z" fill="#1A3037"/>
<path d="M606.715 622.24C606.805 622.15 606.896 622.059 607.032 621.969C607.122 622.014 607.213 622.059 607.303 622.104" fill="#A8A8A8"/>
<path d="M521.926 621.926C522.017 622.016 522.198 622.152 522.198 622.242C522.198 622.333 522.017 622.469 521.926 622.559C521.836 622.469 521.655 622.333 521.609 622.242C521.609 622.152 521.79 622.016 521.926 621.926Z" fill="#A8A8A8"/>
<path d="M735.93 550.095C736.246 549.824 736.608 549.553 736.925 549.281L737.015 549.372C736.744 549.688 736.473 550.005 736.201 550.322C736.201 550.367 735.93 550.095 735.93 550.095Z" fill="#1A3037"/>
<path d="M636.077 657.476C632.548 660.778 628.204 661.728 623.771 662.135C616.667 662.859 609.7 661.818 602.914 659.557C600.697 658.833 598.887 657.657 597.53 655.712C593.141 649.379 589.974 642.459 587.848 634.86C589.341 634.634 589.838 635.674 590.472 636.307C594.498 640.152 598.163 644.359 601.692 648.656C603.321 650.601 605.176 651.822 607.619 652.41C616.984 654.762 626.304 656.978 636.077 657.476Z" fill="#08090A"/>
<path d="M579.033 477.996C578.717 477.86 578.807 477.453 579.169 477.453C587.72 478.041 662.416 478.629 664.95 479.67C664.904 481.75 662.552 482.112 662.28 484.283C688.702 488.264 715.169 491.882 741.093 498.441C722.046 495.591 702.999 492.697 683.952 489.892C676.939 488.852 669.926 487.947 662.914 486.997C660.968 486.726 659.023 486.319 657.213 487.585C655.042 484.69 652.191 485.505 649.386 486.093C649.024 485.278 645.495 485.595 644.726 485.505C627.805 484.193 579.531 478.177 579.033 477.996Z" fill="black"/>
<path d="M646.537 465.148C650.382 466.008 676.94 470.893 680.785 469.807C681.781 469.536 682.867 469.491 683.862 469.219C690.196 467.455 696.62 473.155 698.566 474.693C698.747 474.828 698.656 475.145 698.43 475.145C696.485 475.1 694.992 473.697 693.272 473.019C690.377 471.843 689.653 471.752 685.717 473.426C685.491 473.516 685.536 473.833 685.717 473.878C697.118 477.497 729.964 487.403 741.139 494.55C740.732 495.68 695.58 479.216 684.088 475.823C680.559 474.783 677.211 474.331 673.547 475.235C668.706 476.457 663.774 477.135 657.983 477.633C657.712 477.633 657.621 477.316 657.802 477.18C661.105 474.919 664.362 474.24 667.439 473.336C668.706 472.974 669.339 472.657 668.434 471.571C649.885 468.722 646.129 465.872 646.537 465.148Z" fill="#08090A"/>
<path d="M654.225 428.555C656.623 433.53 657.528 437.827 657.302 442.396C657.257 443.481 656.985 444.477 656.261 445.336C651.375 451.035 645.81 455.74 638.3 457.504C637.893 457.594 637.44 457.458 636.762 457.368C637.35 455.559 638.888 454.79 639.929 453.568C640.879 452.438 641.919 451.307 643.005 450.266C648.57 445.065 653.366 439.456 653.366 431.223C653.366 430.681 653.728 430.093 654.225 428.555Z" fill="#091214"/>
<path d="M664.809 507.577C689.964 504.728 715.119 504.773 740.228 507.577C715.073 507.577 689.918 507.577 664.809 507.577Z" fill="#1A3037"/>
<path d="M649.426 486.045C652.231 485.457 655.127 484.643 657.253 487.538C654.493 490.704 650.467 492.468 648.069 495.996C644.133 495.951 640.197 495.906 636.261 495.861C635.446 495.861 634.903 495.363 634.496 494.73C638.93 490.93 644.359 488.804 649.426 486.045Z" fill="#08090A"/>
<path d="M688.07 499.388C688.07 498.89 688.07 498.393 688.07 497.895C695.626 497.443 703.046 498.664 710.511 499.252C718.881 499.885 727.205 500.971 735.575 501.876C736.028 501.921 736.435 502.011 736.797 502.735C720.509 501.559 704.267 500.473 688.07 499.388Z" fill="#1A3037"/>
<path d="M712.499 470.757C712.137 470.576 711.821 470.259 711.504 469.988C711.594 469.219 712.092 469.4 712.454 469.535C723.493 473.154 733.311 478.808 741.636 486.995C742.359 487.719 746.431 491.428 746.567 492.604C746.522 492.604 723.131 476.139 712.499 470.757Z" fill="#1A3037"/>
<path d="M498.544 637.666L498.453 637.395L498.679 637.44L498.544 637.666Z" fill="#08090A"/>
</svg>
