<svg width="3000" height="2588" viewBox="0 0 3000 2588" fill="none" xmlns="http://www.w3.org/2000/svg">
<rect x="1220" y="734" width="560" height="560" rx="280" fill="url(#paint0_linear_1279_162)"/>
<path fill-rule="evenodd" clip-rule="evenodd" d="M1622.57 866.297L1624.24 866.398C1633.04 867.47 1639.97 876.913 1639.97 888.307V1140L1639.89 1142.11C1639.04 1153.24 1631.58 1162.01 1622.57 1162.01L1620.9 1161.91C1612.11 1160.84 1605.17 1151.39 1605.17 1140V888.307C1605.17 876.201 1613 866.297 1622.57 866.297ZM1376.28 866.297L1377.95 866.398C1386.75 867.47 1393.68 876.913 1393.68 888.307V1140L1393.6 1142.11C1392.76 1153.24 1385.29 1162.01 1376.28 1162.01L1374.61 1161.91C1365.82 1160.84 1358.88 1151.39 1358.88 1140V888.307C1358.88 876.201 1366.71 866.297 1376.28 866.297ZM1499.43 949.907L1500.78 950.008C1509.73 951.348 1516.83 965.832 1516.83 983.352V1061.39L1516.78 1064C1516.08 1081.19 1508.54 1094.84 1499.43 1094.84L1498.07 1094.74C1489.13 1093.4 1482.03 1078.91 1482.03 1061.39V983.352C1482.03 964.956 1489.86 949.907 1499.43 949.907ZM1561 913.125L1562.77 913.212C1571.52 914.072 1578.4 921.224 1578.4 929.849V1035.35L1578.31 1037.06C1577.41 1045.47 1569.97 1052.08 1561 1052.08L1559.23 1051.99C1550.48 1051.13 1543.6 1043.98 1543.6 1035.35V929.849C1543.6 920.649 1551.43 913.125 1561 913.125ZM1437.86 913.125L1439.63 913.212C1448.37 914.072 1455.26 921.224 1455.26 929.849V1035.35L1455.17 1037.06C1454.27 1045.47 1446.83 1052.08 1437.86 1052.08L1436.08 1051.99C1427.34 1051.13 1420.46 1043.98 1420.46 1035.35V929.849C1420.46 920.649 1428.29 913.125 1437.86 913.125Z" fill="white"/>
<path d="M499.5 1734V1854H439.5V1734C439.5 1718.06 442.547 1702.75 448.641 1688.06C454.734 1673.38 463.406 1660.41 474.656 1649.16C485.906 1637.91 498.875 1629.23 513.562 1623.14C528.25 1617.05 543.562 1614 559.5 1614C575.438 1614 590.75 1617.05 605.438 1623.14C620.125 1629.23 633.094 1637.91 644.344 1649.16C646.062 1650.88 647.781 1652.67 649.5 1654.55C651.219 1652.67 652.938 1650.88 654.656 1649.16C665.906 1637.91 678.875 1629.23 693.562 1623.14C708.25 1617.05 723.562 1614 739.5 1614C755.438 1614 770.75 1617.05 785.438 1623.14C800.125 1629.23 813.094 1637.91 824.344 1649.16C835.594 1660.41 844.266 1673.38 850.359 1688.06C856.453 1702.75 859.5 1718.06 859.5 1734V1854H799.5V1734C799.5 1717.44 793.641 1703.3 781.922 1691.58C770.203 1679.86 756.062 1674 739.5 1674C722.938 1674 708.797 1679.86 697.078 1691.58C685.359 1703.3 679.5 1717.44 679.5 1734V1854H619.5V1734C619.5 1717.44 613.641 1703.3 601.922 1691.58C590.203 1679.86 576.062 1674 559.5 1674C542.938 1674 528.797 1679.86 517.078 1691.58C505.359 1703.3 499.5 1717.44 499.5 1734ZM885.047 1734V1614H945.047V1734C945.047 1750.56 950.906 1764.7 962.625 1776.42C974.344 1788.14 988.484 1794 1005.05 1794C1021.61 1794 1035.75 1788.14 1047.47 1776.42C1059.19 1764.7 1065.05 1750.56 1065.05 1734V1614H1125.05V1734C1125.05 1749.94 1122 1765.25 1115.91 1779.94C1109.81 1794.62 1101.14 1807.59 1089.89 1818.84C1078.64 1830.09 1065.67 1838.77 1050.98 1844.86C1036.3 1850.95 1020.98 1854 1005.05 1854C989.109 1854 973.797 1850.95 959.109 1844.86C944.422 1838.77 931.453 1830.09 920.203 1818.84C908.953 1807.59 900.281 1794.62 894.188 1779.94C888.094 1765.25 885.047 1749.94 885.047 1734ZM1362.23 1614V1674H1332.47C1315.91 1674 1301.77 1679.86 1290.05 1691.58C1278.33 1703.3 1272.39 1717.44 1272.23 1734C1272.23 1749.94 1269.19 1765.25 1263.09 1779.94C1257 1794.62 1248.33 1807.59 1237.08 1818.84C1225.83 1830.09 1212.86 1838.77 1198.17 1844.86C1183.48 1850.95 1168.17 1854 1152.23 1854H1122.23V1794H1152.23C1168.8 1794 1182.94 1788.14 1194.66 1776.42C1206.38 1764.7 1212.23 1750.56 1212.23 1734C1212.39 1718.06 1215.52 1702.75 1221.61 1688.06C1227.7 1673.38 1236.38 1660.41 1247.62 1649.16C1258.88 1637.91 1271.84 1629.23 1286.53 1623.14C1301.22 1617.05 1316.45 1614 1332.23 1614H1362.23ZM1389.66 1734V1554H1449.66V1734C1449.66 1750.56 1455.52 1764.7 1467.23 1776.42C1478.95 1788.14 1493.09 1794 1509.66 1794V1854C1493.72 1854 1478.41 1850.95 1463.72 1844.86C1449.03 1838.77 1436.06 1830.09 1424.81 1818.84C1413.56 1807.59 1404.89 1794.62 1398.8 1779.94C1392.7 1765.25 1389.66 1749.94 1389.66 1734ZM1627.08 1674C1610.52 1674 1596.38 1679.86 1584.66 1691.58C1572.94 1703.3 1567.08 1717.44 1567.08 1734C1567.08 1750.56 1572.94 1764.7 1584.66 1776.42C1596.38 1788.14 1610.52 1794 1627.08 1794C1643.64 1794 1657.78 1788.14 1669.5 1776.42C1681.22 1764.7 1687.08 1750.56 1687.08 1734C1687.08 1717.44 1681.22 1703.3 1669.5 1691.58C1657.78 1679.86 1643.64 1674 1627.08 1674ZM1687.08 1837.83C1682.55 1840.48 1677.86 1842.83 1673.02 1844.86C1658.33 1850.95 1643.02 1854 1627.08 1854C1611.14 1854 1595.83 1850.95 1581.14 1844.86C1566.45 1838.77 1553.48 1830.09 1542.23 1818.84C1530.98 1807.59 1522.31 1794.62 1516.22 1779.94C1510.12 1765.25 1507.08 1749.94 1507.08 1734C1507.08 1718.06 1510.12 1702.75 1516.22 1688.06C1522.31 1673.38 1530.98 1660.41 1542.23 1649.16C1553.48 1637.91 1566.45 1629.23 1581.14 1623.14C1595.83 1617.05 1611.14 1614 1627.08 1614C1643.02 1614 1658.33 1617.05 1673.02 1623.14C1687.7 1629.23 1700.67 1637.91 1711.92 1649.16C1723.17 1660.41 1731.84 1673.38 1737.94 1688.06C1744.03 1702.75 1747.08 1718.06 1747.08 1734V1854H1687.08V1837.83ZM1845.75 1734V1854H1785.75V1734C1785.75 1718.06 1788.8 1702.75 1794.89 1688.06C1800.98 1673.38 1809.66 1660.41 1820.91 1649.16C1832.16 1637.91 1845.12 1629.23 1859.81 1623.14C1874.5 1617.05 1889.81 1614 1905.75 1614C1921.69 1614 1937 1617.05 1951.69 1623.14C1966.38 1629.23 1979.34 1637.91 1990.59 1649.16C1992.31 1650.88 1994.03 1652.67 1995.75 1654.55C1997.47 1652.67 1999.19 1650.88 2000.91 1649.16C2012.16 1637.91 2025.12 1629.23 2039.81 1623.14C2054.5 1617.05 2069.81 1614 2085.75 1614C2101.69 1614 2117 1617.05 2131.69 1623.14C2146.38 1629.23 2159.34 1637.91 2170.59 1649.16C2181.84 1660.41 2190.52 1673.38 2196.61 1688.06C2202.7 1702.75 2205.75 1718.06 2205.75 1734V1854H2145.75V1734C2145.75 1717.44 2139.89 1703.3 2128.17 1691.58C2116.45 1679.86 2102.31 1674 2085.75 1674C2069.19 1674 2055.05 1679.86 2043.33 1691.58C2031.61 1703.3 2025.75 1717.44 2025.75 1734V1854H1965.75V1734C1965.75 1717.44 1959.89 1703.3 1948.17 1691.58C1936.45 1679.86 1922.31 1674 1905.75 1674C1889.19 1674 1875.05 1679.86 1863.33 1691.58C1851.61 1703.3 1845.75 1717.44 1845.75 1734ZM2306.53 1854H2246.53V1614H2306.53V1854ZM2276.53 1584C2266.22 1584 2257.39 1580.33 2250.05 1572.98C2242.7 1565.64 2239.03 1556.81 2239.03 1546.5C2239.03 1536.19 2242.7 1527.36 2250.05 1520.02C2257.39 1512.67 2266.22 1509 2276.53 1509C2286.84 1509 2295.67 1512.67 2303.02 1520.02C2310.36 1527.36 2314.03 1536.19 2314.03 1546.5C2314.03 1556.81 2310.36 1565.64 2303.02 1572.98C2295.67 1580.33 2286.84 1584 2276.53 1584ZM2402.86 1734L2320.36 1614H2395.36L2440.36 1679.39L2485.36 1614H2560.36L2477.86 1734L2560.36 1854H2485.36L2440.36 1788.61L2395.36 1854H2320.36L2402.86 1734Z" fill="white"/>
<defs>
<linearGradient id="paint0_linear_1279_162" x1="1220" y1="734" x2="1820.89" y2="1246.01" gradientUnits="userSpaceOnUse">
<stop stop-color="#FF6690"/>
<stop offset="1" stop-color="#00CDFF"/>
</linearGradient>
</defs>
</svg>
